# Blender 4.5.0
# www.blender.org
mtllib single_texture_block.mtl
o Cube
v 0.500000 0.500000 -0.500000
v 0.500000 -0.500000 -0.500000
v 0.500000 0.500000 0.500000
v 0.500000 -0.500000 0.500000
v -0.500000 0.500000 -0.500000
v -0.500000 -0.500000 -0.500000
v -0.500000 0.500000 0.500000
v -0.500000 -0.500000 0.500000
vn -0.0000 1.0000 -0.0000
vn -0.0000 -0.0000 1.0000
vn -1.0000 -0.0000 -0.0000
vn -0.0000 -1.0000 -0.0000
vn 1.0000 -0.0000 -0.0000
vn -0.0000 -0.0000 -1.0000
vt 0.000000 0.000000
vt 1.000000 0.000000
vt 1.000000 1.000000
vt 0.000000 1.000000
vt 1.000000 0.000000
vt 1.000000 1.000000
vt -0.000000 0.000000
s 0
usemtl Material
f 1/1/1 5/2/1 7/3/1 3/4/1
f 4/1/2 3/2/2 7/3/2 8/4/2
f 8/5/3 7/6/3 5/4/3 6/7/3
f 6/5/4 2/6/4 4/4/4 8/7/4
f 2/1/5 1/2/5 3/3/5 4/4/5
f 6/5/6 5/6/6 1/4/6 2/7/6
